<svg width="30" height="30" viewBox="0 0 30 30" fill="none" xmlns="http://www.w3.org/2000/svg">
<path d="M11.7627 4.97266C13.8987 3.6756 16.5798 3.67582 18.7158 4.97266L23.5254 7.8877C25.2393 9.19184 26.2434 11.2234 26.2402 13.377V20.9434C26.1651 23.6941 23.9452 25.9327 21.1631 26H9.31738C6.44585 25.9303 4.1725 23.5473 4.23926 20.6758V13.377C4.23605 11.2235 5.24129 9.19184 6.95508 7.8877L11.7627 4.97266ZM17.6777 6.68262C16.1794 5.77296 14.299 5.77273 12.8008 6.68262L12.7998 6.68359L8.09863 9.5332C6.92436 10.46 6.23704 11.8751 6.23926 13.374V20.8877C6.28562 22.5746 7.64277 23.9487 9.34668 24H21.1328C22.8926 23.9477 24.2821 22.4845 24.2412 20.7227C24.2409 20.7072 24.2402 20.6912 24.2402 20.6758V13.374C24.2425 11.8741 23.5546 10.459 22.3789 9.53223L17.6797 6.68359L17.6777 6.68262Z" fill="#999999"/>
</svg>
