<svg width="30" height="30" viewBox="0 0 30 30" fill="none" xmlns="http://www.w3.org/2000/svg">
<path d="M2.46875 10.5952H7.74487M2.46875 17.1903H7.74487M2.46875 4H23.5732M23.6207 21.1949L27.5303 25.1045M23.6207 21.1949C22.3839 22.4317 20.7058 23.1259 18.9566 23.1259C17.2075 23.1259 15.53 22.4311 14.2932 21.1943C13.0563 19.9574 12.3615 18.2799 12.3615 16.5308C12.3615 14.7816 13.0563 13.1041 14.2932 11.8673C15.53 10.6305 17.2075 9.93564 18.9566 9.93564C20.7058 9.93564 22.3833 10.6305 23.6201 11.8673C24.8569 13.1041 25.5518 14.7816 25.5518 16.5308C25.5518 18.2799 24.8576 19.9581 23.6207 21.1949Z" stroke="#999999" stroke-width="2.08847" stroke-linecap="round" stroke-linejoin="round"/>
</svg>
